<svg width="18" height="18" viewBox="0 0 18 18" fill="none" xmlns="http://www.w3.org/2000/svg">
<path d="M0 5.39856V9.59744C0 12.5741 2.42185 14.996 5.39856 14.996H5.93272C8.02256 14.996 9.98734 15.81 11.465 17.2877L12.0277 17.8503C12.124 17.9466 12.2514 18 12.3861 18C12.6677 18 12.8969 17.7712 12.8969 17.4904V14.9879C15.7347 14.8316 17.9955 12.4737 17.9955 9.59744V5.39856C17.9955 2.42185 15.5736 0 12.5969 0H5.39886C2.42185 0 0 2.42185 0 5.39856ZM11.6969 7.498C11.6969 6.83638 12.2349 6.29832 12.8966 6.29832C13.5582 6.29832 14.0962 6.83638 14.0962 7.498C14.0962 8.15962 13.5582 8.69768 12.8966 8.69768C12.2349 8.69768 11.6969 8.15962 11.6969 7.498ZM7.79792 7.498C7.79792 6.83638 8.33598 6.29832 8.9976 6.29832C9.65922 6.29832 10.1973 6.83638 10.1973 7.498C10.1973 8.15962 9.65922 8.69768 8.9976 8.69768C8.33598 8.69768 7.79792 8.15962 7.79792 7.498ZM3.89896 7.498C3.89896 6.83638 4.43702 6.29832 5.09864 6.29832C5.76026 6.29832 6.29832 6.83638 6.29832 7.498C6.29832 8.15962 5.76026 8.69768 5.09864 8.69768C4.43702 8.69768 3.89896 8.15962 3.89896 7.498Z" fill="#777777"/>
</svg>
