<svg width="24" height="24" viewBox="0 0 24 24" fill="none" xmlns="http://www.w3.org/2000/svg">
<path d="M22.8371 10.3731C22.5657 10.1673 22.2944 9.95205 22.0324 9.73685C21.8078 9.55907 21.7423 9.34387 21.7985 9.03509C21.9014 8.47369 22.2195 7.9965 22.3973 7.46316C22.7903 6.24679 22.3692 5.49825 21.0967 5.25498C20.6569 5.17077 20.2078 5.12398 19.7587 5.06784C19.2534 5.00235 18.9821 4.72164 18.9259 4.21638C18.8792 3.76726 18.823 3.31813 18.7388 2.87837C18.4955 1.60585 17.6909 1.15673 16.4745 1.61521C16.0254 1.78363 15.5762 1.97077 15.1271 2.14854C14.6967 2.31697 14.3879 2.1579 14.1259 1.80235C13.7891 1.35322 13.4616 0.894743 13.0686 0.501761C12.4043 -0.171924 11.5996 -0.162567 10.9166 0.501761C10.6546 0.763749 10.4394 1.07252 10.2055 1.36258C9.38209 2.41053 9.32595 2.41989 8.11893 1.85849C7.66981 1.65264 7.21133 1.45615 6.74349 1.41872C6.05109 1.41872 5.5739 1.80235 5.33998 2.5041C5.15285 3.05615 5.1622 3.64562 5.06863 4.20702C4.98442 4.70293 4.74115 4.99299 4.22653 5.04913C3.80548 5.09591 3.39378 5.15205 2.98209 5.22691C1.55986 5.47954 1.13881 6.2655 1.65343 7.62223C1.83121 8.09007 2.0932 8.51112 2.18676 9.01638C2.2429 9.3158 2.18676 9.531 1.95285 9.71814C1.56922 10.0176 1.19495 10.317 0.811325 10.6164C-0.274055 11.4772 -0.264698 12.5158 0.820682 13.3766C1.18559 13.6667 1.55986 13.9567 1.92478 14.2374C2.16805 14.4246 2.2429 14.6491 2.17741 14.9766C2.06513 15.5099 1.78442 15.9591 1.60665 16.455C1.15752 17.6994 1.59729 18.4947 2.90723 18.738C3.30021 18.8129 3.71191 18.8222 4.10489 18.8971C4.85343 19.0374 4.93764 19.131 5.07799 19.8795C5.18092 20.4409 5.1622 21.0304 5.37741 21.5825C5.67682 22.3591 6.27565 22.6772 7.08033 22.4901C7.46396 22.4059 7.82887 22.2655 8.17507 22.0971C8.4277 21.9754 8.68969 21.8912 8.96103 21.8164C9.31659 21.7135 9.55986 21.8257 9.77507 22.0971C10.0464 22.4526 10.3271 22.8176 10.6078 23.1637C11.4686 24.2585 12.4979 24.2585 13.368 23.1637C13.6394 22.8176 13.9107 22.4807 14.1727 22.1252C14.4066 21.8164 14.6686 21.7041 15.0616 21.807C15.595 21.9474 16.0628 22.2374 16.5868 22.3965C17.7376 22.7614 18.4768 22.3497 18.7201 21.1708C18.8137 20.731 18.8324 20.2725 18.9166 19.8328C19.0476 19.131 19.1411 19.0468 19.8242 18.9064C20.3856 18.7942 20.9751 18.8222 21.5271 18.6164C22.3505 18.317 22.6873 17.7088 22.4815 16.8573C22.3879 16.4737 22.2476 16.1181 22.0792 15.7626C21.9575 15.5099 21.8827 15.2386 21.8078 14.9673C21.7236 14.6491 21.8172 14.4246 22.0604 14.2281C22.3131 14.0222 22.5751 13.8164 22.8277 13.6199C24.3809 12.469 24.3903 11.5521 22.8371 10.3731Z" fill="black"/>
</svg>
